# xmcd CD database file
#
# Track frame offsets:
#	150
#	9877
#	21390
#	30275
#	45352
#	52942
#	63415
#	73997
#	88885
#	100910
#	110845
#
# Disc length: 1655 seconds
#
# Revision: 0
# Processed by: cddbd v1.5.1PL0 Copyright (c) Steve Scherf et al.
# Submitted via: CDex 1.50
#
DISCID=8a06750b
DTITLE=Parsons, Gene - Kindling
DYEAR=1973
DGENRE=Country
TTITLE0=Monument
TTITLE1=Long Way Back
TTITLE2=Do Not Disturb
TTITLE3=Willin'
TTITLE4=On the Spot
TTITLE5=Take a City Bride
TTITLE6=Sonic Bummer
TTITLE7=I Must Be a Tree
TTITLE8=Drunkard's Dream
TTITLE9=Banjo Dog
TTITLE10=Back Again
EXTD=YEAR: 1973
EXTT0=
EXTT1=
EXTT2=
EXTT3=
EXTT4=
EXTT5=
EXTT6=
EXTT7=
EXTT8=
EXTT9=
EXTT10=
PLAYORDER=
